<?xml version="1.0" standalone="no"?><!DOCTYPE svg PUBLIC "-//W3C//DTD SVG 1.1//EN" "http://www.w3.org/Graphics/SVG/1.1/DTD/svg11.dtd"><svg t="1713083694516" class="icon" viewBox="0 0 1024 1024" version="1.1" xmlns="http://www.w3.org/2000/svg" p-id="1495" xmlns:xlink="http://www.w3.org/1999/xlink" width="128" height="128"><path d="M576 128a192 192 0 0 0-191.232 177.728A192 192 0 0 0 256 256a192 192 0 0 0-192 192 192 192 0 0 0 128 180.736V768c0 35.456 28.544 64 64 64h384c35.456 0 64-28.544 64-64v-64l192 128V448l-192 128V462.72A192 192 0 0 0 768 320a192 192 0 0 0-192-192z" fill="#ffffff" p-id="1496"></path></svg>