<?xml version="1.0" standalone="no"?><!DOCTYPE svg PUBLIC "-//W3C//DTD SVG 1.1//EN" "http://www.w3.org/Graphics/SVG/1.1/DTD/svg11.dtd"><svg t="1708765910459" class="icon" viewBox="0 0 1026 1024" version="1.1" xmlns="http://www.w3.org/2000/svg" p-id="4214" xmlns:xlink="http://www.w3.org/1999/xlink" width="64.125" height="64"><path d="M356.668321 454.907549L125.698533 207.759415 0.708786 317.943112l-0.706095-0.800839L1.653237 0 351.134253 1.819092l3.575353 4.056055-125.732743 110.839927 228.240153 244.22602-100.548695 93.966455zM458.214325 662.850469L229.974172 907.076488l125.732743 110.839927-3.575353 4.055058L2.650546 1023.790565 1 706.648292l0.706095-0.800839 124.98875 110.1827 230.969787-247.147137 100.549693 93.967453zM565.894777 359.891924l230.00539-242.563504L670.97325 5.579944 674.578522 1.548821l349.486002 0.717065-0.649248 317.145265-0.713076 0.795853-124.185916-111.08726-232.754971 245.464677-99.866536-94.692497zM662.570921 566.67996l243.669521 228.832555 111.144106-125.464467 4.049075 3.587321 0.96739 349.485004-317.144268 0.879627-0.799842-0.709087L814.943783 898.570439 568.361122 667.000272l94.209799-100.320312z" fill="#1afa29" p-id="4215"></path></svg>