<?xml version="1.0" standalone="no"?><!DOCTYPE svg PUBLIC "-//W3C//DTD SVG 1.1//EN" "http://www.w3.org/Graphics/SVG/1.1/DTD/svg11.dtd"><svg t="1711827181296" class="icon" viewBox="0 0 1024 1024" version="1.1" xmlns="http://www.w3.org/2000/svg" p-id="28270" xmlns:xlink="http://www.w3.org/1999/xlink" width="64" height="64"><path d="M979.4 488.5c-0.5-11.2-1.5-22-2.8-33.1C948.3 220.9 748.6 44 512 44c-63.2 0-124.5 12.4-182.2 36.8-8.8 3.7-17.4 7.7-25.9 11.9 14.7 6 27.8 15 38.7 26.1 0.9-0.4 1.8-0.8 2.8-1.2C398.2 95.3 454.2 84 512 84c160.9 0 303.1 89.4 376.1 223.5 21.7 39.8 37.3 83.6 45.4 130.1 1.3 7.5 2.4 15 3.3 22.7 1.3 10.1 2.1 20 2.6 30.2v0.1c0.4 7.1 0.6 14.3 0.6 21.4 0 25.3-2.2 50.3-6.5 74.9v128.7c3.4-7.1 6.7-14.2 9.7-21.4 24.4-57.7 36.8-119 36.8-182.2 0-7.8-0.2-15.7-0.6-23.5zM773.5 850.9c-29.1 22.5-60.8 41-94.9 55.5C625.8 928.7 569.8 940 512 940c-18.5 0-36.9-1.2-54.8-3.4-13.6-1.7-27.2-4.1-40.3-7.2-62-14.1-120.2-42.2-170-81.4-32.5-8-58.7-32-70-63-26.7-9.7-48.1-30.4-58.7-56.7-9.5-2.2-18.5-5.8-26.7-10.5 15.3 31.3 34.2 60.8 56.3 88.2 32.6 40.4 71.5 74.8 115.3 102.5 44.7 28.1 93.5 48.3 144.8 59.9 14.4 3.3 29.2 6 44.2 7.9 19.5 2.5 39.7 3.8 59.8 3.8 63.2 0 124.5-12.4 182.2-36.8 52.2-22.1 99.5-53.1 140.6-92.3-0.4-0.1-0.8-0.1-1.2-0.1h-60z" fill="#006EF2" p-id="28271"></path><path d="M833.5 331.2c0-33.1-26.9-60-60-60h-10c0-33.1-26.9-60-60-60h-368v-11.9c0-41.5-33.7-75.2-75.2-75.2s-75.2 33.7-75.2 75.2v11.9H141c-33.1 0-60 26.9-60 60v359.7c0 33.1 26.9 60 60 60h10c0 33.1 26.9 60 60 60 0 33.1 26.9 60 60 60h562.5c33.1 0 60-26.9 60-60V391.2c0-33.1-26.9-60-60-60zM225.1 199.3c0-19.4 15.8-35.2 35.2-35.2 19.4 0 35.2 15.8 35.2 35.2v11.9h-70.4v-11.9z m0 51.9h25.4c-0.4 1.7-0.7 3.4-0.7 5.2v97.1c0 6.6-5.5 12.1-12.1 12.1s-12.1-5.5-12.1-12.1v-97.1c0-1.5-0.2-3-0.5-4.4v-0.8zM141 650.9c-11 0-20-9-20-20V271.2c0-11 9-20 20-20h44.1v51.1c0 1.5 0.2 3 0.5 4.4v46.8c0 28.7 23.4 52.1 52.1 52.1s52.1-23.4 52.1-52.1v-97.1c0-1.8-0.3-3.5-0.7-5.2h23.7c0.9 0.1 1.8 0.2 2.7 0.2s1.8-0.1 2.7-0.2h385.3c11 0 20 9 20 20v359.7c0 11-9 20-20 20H141z m70 60c-11 0-20-9-20-20h512.5c33.1 0 60-26.9 60-60V311.2h10c11 0 20 9 20 20v359.7c0 11-9 20-20 20H211z m642.5 40c0 11-9 20-20 20H271c-11 0-20-9-20-20h522.5c33.1 0 60-26.9 60-60V371.2c11 0 20 9 20 20v359.7z" fill="#006EF2" p-id="28272"></path><path d="M639.4 315.8h-250c-11 0-20 9-20 20s9 20 20 20h250c11 0 20-9 20-20s-9-20-20-20zM639.4 424H205.6c-11 0-20 9-20 20s9 20 20 20h433.8c11 0 20-9 20-20s-9-20-20-20zM639.4 532.2H205.6c-11 0-20 9-20 20s9 20 20 20h433.8c11 0 20-9 20-20s-9-20-20-20z" fill="#006EF2" p-id="28273"></path></svg>