<?xml version="1.0" standalone="no"?><!DOCTYPE svg PUBLIC "-//W3C//DTD SVG 1.1//EN" "http://www.w3.org/Graphics/SVG/1.1/DTD/svg11.dtd"><svg t="1711860309444" class="icon" viewBox="0 0 1024 1024" version="1.1" xmlns="http://www.w3.org/2000/svg" p-id="15091" xmlns:xlink="http://www.w3.org/1999/xlink" width="64" height="64"><path d="M102.4 102.4m102.4 0l614.4 0q102.4 0 102.4 102.4l0 614.4q0 102.4-102.4 102.4l-614.4 0q-102.4 0-102.4-102.4l0-614.4q0-102.4 102.4-102.4Z" fill="#0268FD" p-id="15092"></path><path d="M425.728 709.5296L262.8096 534.5792a25.9072 25.9072 0 0 1 0-35.0208l32.9216-34.9696a22.3744 22.3744 0 0 1 32.8704 0l113.6128 122.5216 253.1328-272.64a22.3744 22.3744 0 0 1 32.9216 0l32.9216 34.9696a25.8048 25.8048 0 0 1 0 34.9184l-302.592 325.1712a22.3744 22.3744 0 0 1-32.8704 0" fill="#FFFFFF" p-id="15093"></path></svg>